<mxfile host="app.diagrams.net" agent="Mozilla/5.0 (Windows NT 10.0; Win64; x64) AppleWebKit/537.36 (KHTML, like Gecko) Chrome/133.0.0.0 Safari/537.36" version="26.0.16">
  <diagram name="第 1 页" id="Xz5PU06GAnDAfzOE8Gnp">
    <mxGraphModel dx="1216" dy="596" grid="1" gridSize="10" guides="1" tooltips="1" connect="1" arrows="1" fold="1" page="1" pageScale="1" pageWidth="827" pageHeight="1169" math="0" shadow="0">
      <root>
        <mxCell id="0" />
        <mxCell id="1" parent="0" />
        <mxCell id="2vLCRVX1jUAMyT6jkuKO-1" value="繁忙疏於管理的人&lt;div&gt;&lt;br&gt;&lt;/div&gt;" style="shape=umlActor;verticalLabelPosition=bottom;verticalAlign=top;html=1;outlineConnect=0;" parent="1" vertex="1">
          <mxGeometry x="70" y="280" width="30" height="60" as="geometry" />
        </mxCell>
        <mxCell id="2vLCRVX1jUAMyT6jkuKO-2" value="管理會員" style="ellipse;whiteSpace=wrap;html=1;" parent="1" vertex="1">
          <mxGeometry x="170" y="200" width="100" height="70" as="geometry" />
        </mxCell>
        <mxCell id="2vLCRVX1jUAMyT6jkuKO-3" value="建立日程" style="ellipse;whiteSpace=wrap;html=1;" parent="1" vertex="1">
          <mxGeometry x="210" y="330" width="110" height="70" as="geometry" />
        </mxCell>
        <mxCell id="2vLCRVX1jUAMyT6jkuKO-4" value="維護日程" style="ellipse;whiteSpace=wrap;html=1;" parent="1" vertex="1">
          <mxGeometry x="260" y="550" width="120" height="80" as="geometry" />
        </mxCell>
        <mxCell id="2vLCRVX1jUAMyT6jkuKO-5" value="管理系統" style="shape=umlActor;verticalLabelPosition=bottom;verticalAlign=top;html=1;outlineConnect=0;" parent="1" vertex="1">
          <mxGeometry x="470" y="100" width="30" height="60" as="geometry" />
        </mxCell>
        <mxCell id="2vLCRVX1jUAMyT6jkuKO-7" value="" style="endArrow=none;html=1;rounded=0;entryX=0;entryY=0.5;entryDx=0;entryDy=0;" parent="1" target="2vLCRVX1jUAMyT6jkuKO-3" edge="1">
          <mxGeometry width="50" height="50" relative="1" as="geometry">
            <mxPoint x="100" y="320" as="sourcePoint" />
            <mxPoint x="150" y="270" as="targetPoint" />
          </mxGeometry>
        </mxCell>
        <mxCell id="2vLCRVX1jUAMyT6jkuKO-8" value="" style="endArrow=none;html=1;rounded=0;" parent="1" source="2vLCRVX1jUAMyT6jkuKO-1" edge="1">
          <mxGeometry width="50" height="50" relative="1" as="geometry">
            <mxPoint x="210" y="380" as="sourcePoint" />
            <mxPoint x="170" y="240" as="targetPoint" />
          </mxGeometry>
        </mxCell>
        <mxCell id="2vLCRVX1jUAMyT6jkuKO-9" value="" style="endArrow=none;html=1;rounded=0;exitX=0;exitY=0;exitDx=0;exitDy=0;" parent="1" source="2vLCRVX1jUAMyT6jkuKO-4" edge="1">
          <mxGeometry width="50" height="50" relative="1" as="geometry">
            <mxPoint x="90" y="410" as="sourcePoint" />
            <mxPoint x="140" y="360" as="targetPoint" />
          </mxGeometry>
        </mxCell>
        <mxCell id="2vLCRVX1jUAMyT6jkuKO-12" value="&amp;lt;&amp;lt;extend&amp;gt;&amp;gt;" style="html=1;verticalAlign=bottom;labelBackgroundColor=none;endArrow=open;endFill=0;dashed=1;rounded=0;entryX=0.571;entryY=1.029;entryDx=0;entryDy=0;entryPerimeter=0;exitX=0.297;exitY=0.04;exitDx=0;exitDy=0;exitPerimeter=0;" parent="1" source="2vLCRVX1jUAMyT6jkuKO-4" target="2vLCRVX1jUAMyT6jkuKO-3" edge="1">
          <mxGeometry width="160" relative="1" as="geometry">
            <mxPoint x="250" y="460" as="sourcePoint" />
            <mxPoint x="410" y="460" as="targetPoint" />
          </mxGeometry>
        </mxCell>
        <mxCell id="2vLCRVX1jUAMyT6jkuKO-13" value="" style="endArrow=none;html=1;rounded=0;exitX=1;exitY=0.5;exitDx=0;exitDy=0;" parent="1" source="2vLCRVX1jUAMyT6jkuKO-14" edge="1">
          <mxGeometry width="50" height="50" relative="1" as="geometry">
            <mxPoint x="530" y="320" as="sourcePoint" />
            <mxPoint x="600" y="310" as="targetPoint" />
          </mxGeometry>
        </mxCell>
        <mxCell id="2vLCRVX1jUAMyT6jkuKO-14" value="推薦日程" style="ellipse;whiteSpace=wrap;html=1;" parent="1" vertex="1">
          <mxGeometry x="413" y="280" width="120" height="80" as="geometry" />
        </mxCell>
        <mxCell id="2vLCRVX1jUAMyT6jkuKO-16" value="使用動態排程" style="ellipse;whiteSpace=wrap;html=1;" parent="1" vertex="1">
          <mxGeometry x="50" y="530" width="120" height="80" as="geometry" />
        </mxCell>
        <mxCell id="2vLCRVX1jUAMyT6jkuKO-17" value="" style="endArrow=none;html=1;rounded=0;exitX=0.5;exitY=0;exitDx=0;exitDy=0;" parent="1" source="2vLCRVX1jUAMyT6jkuKO-16" edge="1">
          <mxGeometry width="50" height="50" relative="1" as="geometry">
            <mxPoint x="40" y="390" as="sourcePoint" />
            <mxPoint x="90" y="340" as="targetPoint" />
          </mxGeometry>
        </mxCell>
        <mxCell id="dfAzhgAMpCQyfqDTIuD1-2" value="&amp;lt;&amp;lt;extend&amp;gt;&amp;gt;" style="html=1;verticalAlign=bottom;labelBackgroundColor=none;endArrow=open;endFill=0;dashed=1;rounded=0;exitX=0.307;exitY=0.985;exitDx=0;exitDy=0;exitPerimeter=0;" parent="1" source="2vLCRVX1jUAMyT6jkuKO-14" target="2vLCRVX1jUAMyT6jkuKO-4" edge="1">
          <mxGeometry width="160" relative="1" as="geometry">
            <mxPoint x="442.76" y="310.00000000000006" as="sourcePoint" />
            <mxPoint x="340" y="522.8" as="targetPoint" />
          </mxGeometry>
        </mxCell>
        <mxCell id="dfAzhgAMpCQyfqDTIuD1-3" value="&amp;lt;&amp;lt;extend&amp;gt;&amp;gt;" style="html=1;verticalAlign=bottom;labelBackgroundColor=none;endArrow=open;endFill=0;dashed=1;rounded=0;exitX=0;exitY=0.5;exitDx=0;exitDy=0;entryX=1;entryY=0.5;entryDx=0;entryDy=0;" parent="1" source="2vLCRVX1jUAMyT6jkuKO-14" target="2vLCRVX1jUAMyT6jkuKO-3" edge="1">
          <mxGeometry width="160" relative="1" as="geometry">
            <mxPoint x="482" y="100" as="sourcePoint" />
            <mxPoint x="313" y="343" as="targetPoint" />
          </mxGeometry>
        </mxCell>
        <mxCell id="1E9T9cRjUOAsxMBuO9qw-1" value="ChatGpt API" style="shape=umlActor;verticalLabelPosition=bottom;verticalAlign=top;html=1;outlineConnect=0;" vertex="1" parent="1">
          <mxGeometry x="610" y="290" width="30" height="60" as="geometry" />
        </mxCell>
        <mxCell id="1E9T9cRjUOAsxMBuO9qw-2" value="" style="endArrow=none;html=1;rounded=0;exitX=0.979;exitY=0.343;exitDx=0;exitDy=0;exitPerimeter=0;" edge="1" parent="1" source="2vLCRVX1jUAMyT6jkuKO-2">
          <mxGeometry width="50" height="50" relative="1" as="geometry">
            <mxPoint x="380" y="230" as="sourcePoint" />
            <mxPoint x="450" y="172" as="targetPoint" />
          </mxGeometry>
        </mxCell>
        <mxCell id="1E9T9cRjUOAsxMBuO9qw-3" value="管理日程" style="ellipse;whiteSpace=wrap;html=1;" vertex="1" parent="1">
          <mxGeometry x="260" y="90" width="100" height="70" as="geometry" />
        </mxCell>
        <mxCell id="1E9T9cRjUOAsxMBuO9qw-4" value="" style="endArrow=none;html=1;rounded=0;exitX=1.036;exitY=0.715;exitDx=0;exitDy=0;exitPerimeter=0;" edge="1" parent="1" source="1E9T9cRjUOAsxMBuO9qw-3">
          <mxGeometry width="50" height="50" relative="1" as="geometry">
            <mxPoint x="278" y="200" as="sourcePoint" />
            <mxPoint x="460" y="148" as="targetPoint" />
          </mxGeometry>
        </mxCell>
        <mxCell id="1E9T9cRjUOAsxMBuO9qw-5" value="&amp;lt;&amp;lt;extend&amp;gt;&amp;gt;" style="html=1;verticalAlign=bottom;labelBackgroundColor=none;endArrow=open;endFill=0;dashed=1;rounded=0;entryX=0.434;entryY=-0.091;entryDx=0;entryDy=0;entryPerimeter=0;exitX=0.634;exitY=0.993;exitDx=0;exitDy=0;exitPerimeter=0;" edge="1" parent="1" source="2vLCRVX1jUAMyT6jkuKO-2" target="2vLCRVX1jUAMyT6jkuKO-3">
          <mxGeometry width="160" relative="1" as="geometry">
            <mxPoint x="290" y="280" as="sourcePoint" />
            <mxPoint x="330" y="310" as="targetPoint" />
          </mxGeometry>
        </mxCell>
        <mxCell id="1E9T9cRjUOAsxMBuO9qw-6" value="條件:當使用者不登入帳號&lt;div&gt;時機:建立日程時&lt;br&gt;&lt;div&gt;&lt;br&gt;&lt;/div&gt;&lt;/div&gt;" style="shape=note2;boundedLbl=1;whiteSpace=wrap;html=1;size=25;verticalAlign=top;align=center;" vertex="1" parent="1">
          <mxGeometry x="300" y="230" width="160" height="60" as="geometry" />
        </mxCell>
        <mxCell id="1E9T9cRjUOAsxMBuO9qw-7" value="" style="endArrow=none;startArrow=none;endFill=0;startFill=0;endSize=8;html=1;verticalAlign=bottom;dashed=1;labelBackgroundColor=none;rounded=0;entryX=0.363;entryY=0.013;entryDx=0;entryDy=0;entryPerimeter=0;" edge="1" parent="1">
          <mxGeometry width="160" relative="1" as="geometry">
            <mxPoint x="312" y="270" as="sourcePoint" />
            <mxPoint x="250" y="300" as="targetPoint" />
          </mxGeometry>
        </mxCell>
      </root>
    </mxGraphModel>
  </diagram>
</mxfile>
